<svg id="social" xmlns="http://www.w3.org/2000/svg" width="278.606" height="34.606" viewBox="0 0 278.606 34.606">
  <path id="Path_1" data-name="Path 1" d="M261.3,0a17.3,17.3,0,1,0,17.3,17.3A17.306,17.306,0,0,0,261.3,0Zm10.812,17.321a28.565,28.565,0,0,1-.445,5.2,2.712,2.712,0,0,1-1.906,1.906c-1.693.445-8.461.445-8.461.445s-6.751,0-8.461-.463a2.713,2.713,0,0,1-1.907-1.906,28.46,28.46,0,0,1-.445-5.2,28.568,28.568,0,0,1,.445-5.2,2.767,2.767,0,0,1,1.907-1.924c1.692-.445,8.461-.445,8.461-.445s6.768,0,8.461.463A2.712,2.712,0,0,1,271.67,12.1,27.108,27.108,0,0,1,272.115,17.321Zm-12.967,3.224,5.628-3.242-5.628-3.242Z" fill="#ffb817"/>
  <path id="Path_2" data-name="Path 2" d="M17.3,0a17.3,17.3,0,1,0,17.3,17.3A17.305,17.305,0,0,0,17.3,0ZM12.275,26.158H8.061V13.48h4.214Zm-2.107-14.41h-.028a2.181,2.181,0,0,1-2.328-2.19A2.214,2.214,0,0,1,10.2,7.367a2.2,2.2,0,1,1-.028,4.381Zm17.3,14.41H23.257V19.375c0-1.7-.61-2.867-2.135-2.867a2.307,2.307,0,0,0-2.162,1.541,2.882,2.882,0,0,0-.139,1.028v7.08H14.607s.055-11.489,0-12.678h4.214v1.8a4.184,4.184,0,0,1,3.8-2.093c2.773,0,4.852,1.812,4.852,5.706v7.269Z" fill="#ffb817"/>
  <path id="Path_3" data-name="Path 3" d="M208.048,11.443a3.292,3.292,0,0,0-1.885-1.886,5.5,5.5,0,0,0-1.845-.342c-1.048-.048-1.362-.058-4.015-.058s-2.967.01-4.015.058a5.505,5.505,0,0,0-1.844.342,3.289,3.289,0,0,0-1.886,1.886,5.494,5.494,0,0,0-.342,1.845c-.048,1.048-.058,1.362-.058,4.015s.01,2.967.058,4.015a5.493,5.493,0,0,0,.342,1.844,3.29,3.29,0,0,0,1.886,1.886,5.478,5.478,0,0,0,1.845.342c1.048.048,1.361.058,4.015.058s2.968-.01,4.015-.058a5.5,5.5,0,0,0,1.845-.342,3.3,3.3,0,0,0,1.886-1.886,5.493,5.493,0,0,0,.342-1.844c.048-1.048.058-1.362.058-4.015s-.01-2.967-.058-4.015a5.5,5.5,0,0,0-.342-1.845ZM200.3,22.4a5.1,5.1,0,1,1,5.1-5.1A5.1,5.1,0,0,1,200.3,22.4Zm5.3-9.213A1.192,1.192,0,1,1,206.8,12,1.192,1.192,0,0,1,205.607,13.192Zm-5.3.8a3.312,3.312,0,1,0,3.312,3.312A3.312,3.312,0,0,0,200.3,13.991ZM200.3,0a17.3,17.3,0,1,0,17.3,17.3A17.306,17.306,0,0,0,200.3,0Zm9.876,21.4a7.273,7.273,0,0,1-.462,2.412,5.077,5.077,0,0,1-2.906,2.906,7.284,7.284,0,0,1-2.411.462c-1.06.048-1.4.06-4.1.06s-3.037-.011-4.1-.06a7.291,7.291,0,0,1-2.412-.462,5.081,5.081,0,0,1-2.906-2.906,7.305,7.305,0,0,1-.461-2.412c-.049-1.06-.061-1.4-.061-4.1s.012-3.037.061-4.1a7.3,7.3,0,0,1,.461-2.412A5.087,5.087,0,0,1,193.8,7.888a7.291,7.291,0,0,1,2.411-.462c1.06-.048,1.4-.06,4.1-.06s3.037.011,4.1.06a7.31,7.31,0,0,1,2.411.461,5.082,5.082,0,0,1,2.906,2.906,7.277,7.277,0,0,1,.462,2.412c.048,1.06.06,1.4.06,4.1s-.012,3.037-.06,4.1Z" fill="#ffb817"/>
  <path id="Path_4" data-name="Path 4" d="M78.3,0a17.3,17.3,0,1,0,17.3,17.3A17.323,17.323,0,0,0,78.3,0Zm4.3,17.912H79.791V27.946H75.62V17.912H73.637V14.366H75.62V12.072a3.912,3.912,0,0,1,4.21-4.21l3.091.012v3.442H80.677a.849.849,0,0,0-.885.966v2.084H82.97l-.364,3.546Z" fill="#ffb817"/>
  <path id="Path_5" data-name="Path 5" d="M145.155,15.936a2.277,2.277,0,0,0-2.241,1.962H147.1A1.894,1.894,0,0,0,145.155,15.936Zm-8.593-1.518c0-1.324-.9-1.324-.9-1.324h-3.708v2.842h3.479c.6,0,1.131-.192,1.131-1.518Zm-.9,3.481h-3.706V21.3h3.283c.056,0,.138,0,.237,0,.528-.014,1.531-.164,1.531-1.655,0-1.767-1.344-1.751-1.344-1.751ZM139.3,0a17.3,17.3,0,1,0,17.3,17.3A17.323,17.323,0,0,0,139.3,0Zm3.062,11.58h5.255v1.569h-5.255Zm-2.657,8.227c0,3.887-4.047,3.76-4.047,3.76h-6.626V10.83h6.626c2.015,0,3.605,1.113,3.605,3.392a2.21,2.21,0,0,1-1.943,2.423c2.561,0,2.385,3.161,2.385,3.161Zm9.831-.209h-6.6a2.073,2.073,0,0,0,2.242,2.218c2.116,0,2.042-1.37,2.042-1.37h2.243c0,3.637-4.358,3.386-4.358,3.386a4.518,4.518,0,0,1-4.894-4.868s-.005-4.894,4.894-4.894c5.155,0,4.43,5.528,4.431,5.528Z" fill="#ffb817"/>
</svg>
